{"title":"The.Way.2010.480p.XviD.Ac3.Feel-Free","uid":6472524,"size":1429397408,"categoryP":"video","categoryS":"movies","magnet":"?xt=urn:btih:54eee359b28804ec2b3aa0972dfe9d29f3c13cdb&amp;dn=The.Way.2010.480p.XviD.Ac3.Feel-Free&amp;tr=udp%3A%2F%2Ftracker.openbittorrent.com%3A80&amp;tr=udp%3A%2F%2Fopen.demonii.com%3A1337&amp;tr=udp%3A%2F%2Ftracker.coppersurfer.tk%3A6969&amp;tr=udp%3A%2F%2Fexodus.desync.com%3A6969","seeders":0,"leechers":1,"uploader":"hiest","files":-1,"time":1308194541,"description":"Full Credits To Feel Free :)\n\n ######## ######## ######## ##          ######## ########  ######## ######## \n ##       ##       ##       ##          ##       ##     ## ##       ##       \n ##       ##       ##       ##          ##       ##     ## ##       ##       \n ######   ######   ######   ##          ######   ########  ######   ######   \n ##       ##       ##       ##          ##       ##   ##   ##       ##       \n ##       ##       ##       ##          ##       ##    ##  ##       ##       \n ##       ######## ######## ########    ##       ##     ## ######## ######## \n\n\n Genre:Action | Adventure | Comedy \n Language:English\n &lt;a href=&quot; http://www.imdb.com/title/tt1441912&quot; rel=&quot;nofollow&quot; target=&quot;_NEW&quot;&gt; http://www.imdb.com/title/tt1441912&lt;/a&gt;\n Source:BluRay x264-HDChina Thanks!\n\n Format : AVI\n Format/Info : Audio Video Interleave\n File size : 1.33 GiB\n Duration : 2h 8mn\n Overall bit rate : 1 486 Kbps\n\n Video\n ID : 0\n Format : MPEG-4 Visual\n Format profile : Advanced Simple@L5\n Format settings, BVOP : Yes\n Format settings, QPel : No\n Format settings, GMC : No warppoints\n Format settings, Matrix : Default (H.263)\n Codec ID : XVID\n Codec ID/Hint : XviD\n Duration : 2h 8mn\n Bit rate : 1 028 Kbps\n Width : 640 pixels\n Height : 344 pixels\n Display aspect ratio : 1.860\n Frame rate : 24.000 fps\n Color space : YUV\n Chroma subsampling : 4:2:0\n Bit depth : 8 bits\n Scan type : Progressive\n Bits/(Pixel*Frame) : 0.195\n Stream size : 942 MiB (69%)\n Writing library : XviD 1.2.1 (UTC 2008-12-04)\n\n Audio\n ID : 1\n Format : AC-3\n Format/Info : Audio Coding 3\n Mode extension : CM (complete main)\n Codec ID : 2000\n Duration : 2h 8mn\n Bit rate mode : Constant\n Bit rate : 448 Kbps\n Channel(s) : 6 channels\n Channel positions : Front: L C R, Side: L R, LFE\n Sampling rate : 48.0 KHz\n Bit depth : 16 bits\n Stream size : 410 MiB (30%)\n Alignment : Aligned on interleaves\n Interleave, duration : 42 ms (1.00 video frame)\n Interleave, preload duration : 512 ms\n\n\n Plot:\n An American father travels to France to recover the body of his estranged \n son who died while traveling &quot;El camino de Santiago&quot; from France to Santiago \n de Compostela (Spain).\n\n\n\n\n\n\n ==================================\n &lt;a href=&quot; http://thepiratebay.se/user/hiest&quot; rel=&quot;nofollow&quot; target=&quot;_NEW&quot;&gt; http://thepiratebay.se/user/hiest&lt;/a&gt;\n ==================================\n\n\n\n\n\n\n Screen Shots:\n\n &lt;a href=&quot; http://leetleech.org/images/34606233835201661608.png&quot; rel=&quot;nofollow&quot; target=&quot;_NEW&quot;&gt; http://leetleech.org/images/34606233835201661608.png&lt;/a&gt;\n\n &lt;a href=&quot; http://leetleech.org/images/19757580887286570382.png&quot; rel=&quot;nofollow&quot; target=&quot;_NEW&quot;&gt; http://leetleech.org/images/19757580887286570382.png&lt;/a&gt;\n\n &lt;a href=&quot; http://leetleech.org/images/85716857660087070028.png&quot; rel=&quot;nofollow&quot; target=&quot;_NEW&quot;&gt; http://leetleech.org/images/85716857660087070028.png&lt;/a&gt;\n\n &lt;a href=&quot; http://leetleech.org/images/74731632603055609013.png&quot; rel=&quot;nofollow&quot; target=&quot;_NEW&quot;&gt; http://leetleech.org/images/74731632603055609013.png&lt;/a&gt;\n\n &lt;a href=&quot; http://leetleech.org/images/38313928942994008373.png&quot; rel=&quot;nofollow&quot; target=&quot;_NEW&quot;&gt; http://leetleech.org/images/38313928942994008373.png&lt;/a&gt;\n\n\n Full Credits To Feel Free :)\n\n ######## ######## ######## ##          ######## ########  ######## ######## \n ##       ##       ##       ##          ##       ##     ## ##       ##       \n ##       ##       ##       ##          ##       ##     ## ##       ##       \n ######   ######   ######   ##          ######   ########  ######   ######   \n ##       ##       ##       ##          ##       ##   ##   ##       ##       \n ##       ##       ##       ##          ##       ##    ##  ##       ##       \n ##       ######## ######## ########    ##       ##     ## ######## ######## ","torrent":{"xt":"urn:btih:54eee359b28804ec2b3aa0972dfe9d29f3c13cdb","amp;dn":"The.Way.2010.480p.XviD.Ac3.Feel-Free","amp;tr":["udp%3A%2F%2Ftracker.openbittorrent.com%3A80","udp%3A%2F%2Fopen.demonii.com%3A1337","udp%3A%2F%2Ftracker.coppersurfer.tk%3A6969","udp%3A%2F%2Fexodus.desync.com%3A6969"],"infoHash":"54eee359b28804ec2b3aa0972dfe9d29f3c13cdb","infoHashBuffer":{"type":"Buffer","data":[84,238,227,89,178,136,4,236,43,58,160,151,45,254,157,41,243,193,60,219]},"announce":[],"urlList":[]}}